<svg xmlns="http://www.w3.org/2000/svg" id="Layer_1" viewBox="0 0 32 32"><path fill="#b386bc" d="M27.5 9.5H18v2h-4v-2H4.5a2 2 0 0 0-2 2v2h27v-2a2 2 0 0 0-2-2z"/><path fill="#cbaad0" d="M18 11.5h-4v-5a2 2 0 1 1 4 0v5z"/><path fill="#fff" d="M27.5 27.5h-23a2 2 0 0 1-2-2v-12h27v12a2 2 0 0 1-2 2z"/><path fill="#cbaad0" d="M13.5 15.5h14v2h-14z"/><path fill="#b386bc" d="M6.833 19.387v1.167l-1.536.609A1.167 1.167 0 0 0 4.5 22.27v1.23h7v-1.23c0-.502-.321-.948-.798-1.107l-1.536-.609v-1.173"/><path fill="#eadded" d="M9.497 17.931v.306a1.528 1.528 0 1 1-3.056 0v-.306l-.02-.164-.199-.933a.553.553 0 0 1 .541-.669v-.018a.67.67 0 0 1 .781-.661l1.613.269a.685.685 0 0 1 .561.797L9.5 17.767l-.003.164z"/><path fill="#9868ac" d="M9.156 15.754l-1.613-.269a.67.67 0 0 0-.781.661v.018a.553.553 0 0 0-.541.669l.199.933.001.011H7l.25-.769h1.5l.25.77h.499v-.011l.218-1.215a.685.685 0 0 0-.561-.798z"/><path fill="#eadded" d="M9.469 20.723l-.471-.176v-1.178H6.933v1.178l-.465.174c.286.54.847.911 1.501.911a1.7 1.7 0 0 0 1.5-.909z"/><path fill="#8e5ba5" d="M27.5 28h-23A2.502 2.502 0 0 1 2 25.5v-12a.5.5 0 0 1 .5-.5h27a.5.5 0 0 1 .5.5v12c0 1.379-1.121 2.5-2.5 2.5zM3 14v11.5c0 .827.673 1.5 1.5 1.5h23c.827 0 1.5-.673 1.5-1.5V14H3zM20.5 12h-9a.5.5 0 0 1 0-1h9a.5.5 0 0 1 0 1z"/><path fill="#8e5ba5" d="M18 12h-4a.5.5 0 0 1-.5-.5v-5C13.5 5.122 14.621 4 16 4s2.5 1.122 2.5 2.5v5a.5.5 0 0 1-.5.5zm-3.5-1h3V6.5c0-.827-.673-1.5-1.5-1.5s-1.5.673-1.5 1.5V11z"/><path fill="#8e5ba5" d="M29.5 14h-27a.5.5 0 0 1-.5-.5v-2C2 10.122 3.121 9 4.5 9H14a.5.5 0 0 1 .5.5V11h3V9.5A.5.5 0 0 1 18 9h9.5c1.379 0 2.5 1.122 2.5 2.5v2a.5.5 0 0 1-.5.5zM3 13h26v-1.5c0-.827-.673-1.5-1.5-1.5h-9v1.5a.5.5 0 0 1-.5.5h-4a.5.5 0 0 1-.5-.5V10h-9c-.827 0-1.5.673-1.5 1.5V13z"/><ellipse cx="16" cy="6.5" fill="#8e5ba5" rx=".5" ry=".5" transform="rotate(-83.235 16.001 6.5)"/><path fill="#8e5ba5" d="M8 20.266a2.023 2.023 0 0 1-2.02-2.021l-.017-.404-.19-.886a1.049 1.049 0 0 1 .596-1.177 1.164 1.164 0 0 1 1.29-.761l1.604.268c.313.052.587.224.771.484.184.261.254.577.197.891l-.217 1.208.005.379A2.022 2.022 0 0 1 8 20.266zM7.467 16a.169.169 0 0 0-.166.167.516.516 0 0 1-.5.518l.176 1.194.004.366c0 .563.457 1.021 1.02 1.021s1.02-.458 1.02-1.021v-.304-.009l.003-.163.225-1.289a.181.181 0 0 0-.03-.137.195.195 0 0 0-.119-.073l-1.604-.268L7.467 16z"/><path fill="#8e5ba5" d="M11.5 24h-7a.5.5 0 0 1-.5-.5v-1.23c0-.718.458-1.354 1.14-1.581l1.193-.474v-.827a.5.5 0 0 1 1 0v1.166a.5.5 0 0 1-.315.465l-1.535.609A.678.678 0 0 0 5 22.27V23h6v-.73a.667.667 0 0 0-.456-.632l-1.562-.619a.5.5 0 0 1-.315-.465v-1.173a.5.5 0 0 1 1 0v.833l1.22.484A1.656 1.656 0 0 1 12 22.27v1.23a.5.5 0 0 1-.5.5zM27.5 18h-14a.5.5 0 0 1-.5-.5v-2a.5.5 0 0 1 .5-.5h14a.5.5 0 0 1 .5.5v2a.5.5 0 0 1-.5.5zM14 17h13v-1H14v1zM14.5 20h-1a.5.5 0 0 1 0-1h1a.5.5 0 0 1 0 1zM14.5 22h-1a.5.5 0 0 1 0-1h1a.5.5 0 0 1 0 1zM14.5 24h-1a.5.5 0 0 1 0-1h1a.5.5 0 0 1 0 1zM27.5 20h-11a.5.5 0 0 1 0-1h11a.5.5 0 0 1 0 1zM27.5 22h-11a.5.5 0 0 1 0-1h11a.5.5 0 0 1 0 1zM27.5 24h-11a.5.5 0 0 1 0-1h11a.5.5 0 0 1 0 1zM27.5 26h-23a.5.5 0 0 1 0-1h23a.5.5 0 0 1 0 1z"/></svg>