<?xml version="1.0" encoding="UTF-8"?><!DOCTYPE svg PUBLIC "-//W3C//DTD SVG 1.1//EN" "http://www.w3.org/Graphics/SVG/1.1/DTD/svg11.dtd"><svg xmlns="http://www.w3.org/2000/svg" xmlns:xlink="http://www.w3.org/1999/xlink" width="32.00199890136719" height="32" viewBox="0 0 32.00199890136719 32" fill="#000"><path d="M2.062 32h27.812a2 2 0 0 0 1.766-2.942l-13.876-26A1.997 1.997 0 0 0 16.002 2H16c-.738 0-1.414.406-1.762 1.056L.3 29.056a2.004 2.004 0 0 0 .046 1.972A2.005 2.005 0 0 0 2.062 32zM16 24a2 2 0 1 1-.001 4.001A2 2 0 0 1 16 24zm-2-3.968v-8a2 2 0 0 1 4 0v8a2 2 0 0 1-4 0z"/><metadata><rdf:RDF xmlns:rdf="http://www.w3.org/1999/02/22-rdf-syntax-ns#" xmlns:rdfs="http://www.w3.org/2000/01/rdf-schema#" xmlns:dc="http://purl.org/dc/elements/1.1/"><rdf:Description about="https://iconscout.com/legal#licenses" dc:title="error,triangle" dc:description="error,triangle" dc:publisher="Iconscout" dc:date="2017-09-25" dc:format="image/svg+xml" dc:language="en"><dc:creator><rdf:Bag><rdf:li>Elegant Themes</rdf:li></rdf:Bag></dc:creator></rdf:Description></rdf:RDF></metadata></svg>