<svg xmlns="http://www.w3.org/2000/svg" id="Layer_1" enable-background="new 0 0 64 64" viewBox="0 0 64 64"><path d="M59.98,58.33H4.02C1.81,58.33,0,56.52,0,54.3V19.42c0-2.22,1.8-4.02,4.02-4.02h20.26c0.54,0,0.97,0.43,0.97,0.97
			c0,0.54-0.43,0.97-0.97,0.97H4.02c-1.15,0-2.08,0.93-2.08,2.08V54.3c0,1.15,0.94,2.08,2.08,2.08h55.95c1.15,0,2.08-0.94,2.08-2.08
			V19.42c0-1.15-0.93-2.08-2.08-2.08H40.7c-0.54,0-0.97-0.43-0.97-0.97c0-0.54,0.43-0.97,0.97-0.97h19.28c2.22,0,4.02,1.8,4.02,4.02
			V54.3C64,56.52,62.2,58.33,59.98,58.33z"/><path d="M57.13,54.4H6.87c-1.62,0-2.94-1.32-2.94-2.94V22.27c0-1.62,1.32-2.94,2.94-2.94h17.42c0.54,0,0.97,0.43,0.97,0.97
			s-0.43,0.97-0.97,0.97H6.87c-0.55,0-1,0.45-1,1v29.19c0,0.55,0.45,1,1,1h50.26c0.55,0,1-0.45,1-1V22.27c0-0.55-0.45-1-1-1H40.7
			c-0.54,0-0.97-0.43-0.97-0.97s0.43-0.97,0.97-0.97h16.43c1.62,0,2.94,1.32,2.94,2.94v29.19C60.07,53.08,58.75,54.4,57.13,54.4z"/><path d="M18.05 35.87c-3.22 0-5.83-2.62-5.83-5.83 0-3.22 2.62-5.83 5.83-5.83 3.22 0 5.83 2.62 5.83 5.83C23.89 33.25 21.27 35.87 18.05 35.87zM18.05 26.14c-2.15 0-3.89 1.75-3.89 3.89 0 2.15 1.75 3.89 3.89 3.89 2.15 0 3.89-1.75 3.89-3.89C21.95 27.89 20.2 26.14 18.05 26.14zM28.04 48.54H8.06c-.54 0-.97-.43-.97-.97 0-6.05 4.92-10.97 10.96-10.97 6.04 0 10.96 4.92 10.96 10.97C29.01 48.11 28.58 48.54 28.04 48.54zM9.08 46.6h17.93c-.48-4.52-4.32-8.06-8.97-8.06C13.41 38.54 9.57 42.08 9.08 46.6zM54.08 28.96H32.5c-.54 0-.97-.43-.97-.97 0-.54.43-.97.97-.97h21.58c.54 0 .97.43.97.97C55.05 28.53 54.62 28.96 54.08 28.96zM54.08 34.88H32.5c-.54 0-.97-.43-.97-.97s.43-.97.97-.97h21.58c.54 0 .97.43.97.97S54.62 34.88 54.08 34.88zM54.08 40.79H32.5c-.54 0-.97-.43-.97-.97 0-.54.43-.97.97-.97h21.58c.54 0 .97.43.97.97C55.05 40.36 54.62 40.79 54.08 40.79zM54.08 46.7H32.5c-.54 0-.97-.43-.97-.97 0-.54.43-.97.97-.97h21.58c.54 0 .97.43.97.97C55.05 46.27 54.62 46.7 54.08 46.7z"/><g><path d="M38.96,22.9H26.02c-1.5,0-2.72-1.22-2.72-2.72v-3.71c0-1.5,1.22-2.72,2.72-2.72h12.94c1.5,0,2.72,1.22,2.72,2.72v3.71
			C41.68,21.69,40.46,22.9,38.96,22.9z M26.02,15.7c-0.43,0-0.78,0.35-0.78,0.78v3.71c0,0.43,0.35,0.78,0.78,0.78h12.94
			c0.43,0,0.78-0.35,0.78-0.78v-3.71c0-0.43-0.35-0.78-0.78-0.78H26.02z"/></g><g><path d="M36.48,15.7c-0.54,0-0.97-0.43-0.97-0.97v-4.1c0-1.66-1.35-3.01-3.01-3.01s-3.01,1.35-3.01,3.01v4.1
			c0,0.54-0.43,0.97-0.97,0.97s-0.97-0.43-0.97-0.97v-4.1c0-2.73,2.22-4.95,4.95-4.95s4.95,2.22,4.95,4.95v4.1
			C37.45,15.26,37.02,15.7,36.48,15.7z"/></g></svg>