<svg xmlns="http://www.w3.org/2000/svg" data-name="Layer 1" viewBox="0 0 64 64"><circle cx="32" cy="32" r="32" fill="#f96e58"/><path fill="#617a87" d="M52.13,42.39c-1.44-6.13-8.19-6-11.88-7.41a7,7,0,0,1-.86-.4,3.83,3.83,0,0,1-.65-.46,4.6,4.6,0,0,1-.85-1L35,35.46l-1.2.82.11.46H30.27l.12-.47-1.2-.82-3.07-2.34,0,.06A4.39,4.39,0,0,1,25,34.34h0a3.08,3.08,0,0,1-.37.24,7,7,0,0,1-1,.46c-3.72,1.37-10.3,1.31-11.72,7.35a39.72,39.72,0,0,0-1.06,8.84,105.55,105.55,0,0,0,16.72,2.54l.39,0,.48,0,1,0,.48,0h4.29l.52,0,.48,0,.48,0a114.39,114.39,0,0,0,17.57-2.56A40.25,40.25,0,0,0,52.13,42.39Z"/><path fill="#fff" d="M35.24,32.84l-.41.28-1.2.82.11.46H30.11l.12-.47L29,33.12l-.41-.28H26.17c0,.09,0,.19,0,.28,0,.25,0,.5,0,.75,0,.56.07,1.12.11,1.69a91.38,91.38,0,0,0,3.52,18.32h4.28a91.36,91.36,0,0,0,3.53-18.42c.06-.77.11-1.54.14-2.31a.06.06,0,0,0,0,0h0c0-.09,0-.17,0-.26Z"/><path fill="#ea424f" d="M34,51.29h0l-.78-13H30.94v0L30,51.77l0,.69L30,53.88h3.91l.08-1.4Z"/><path fill="#b22b39" d="M33.18,38.29h0L31,38.36l2.27.73Z"/><path fill="#ea424f" d="M33.74,34.39H29.36l.3,2.27h0l1.28,1.68v0h2.18l0-.06h0l1-1.48.1-.14.3-2.28Z"/><path fill="#e5e5e5" d="M29 33.12l-.41-.28-2-1.36L26 32.67h0l-1 1.66h0l1.34 1.22.3.27 2.24 2c.25.23.6 0 .66-.33l.12-.86h0l.13-.94.32-1.32.12-.47zM38.74 34.12l-.85-1.45c-.47-.82-.68-1.18-.68-1.18l-2 1.36-.41.28-1.2.82.11.46.32 1.32.16 1.09.1.71c.05.38.41.56.66.33l2.24-2h0l.43-.4 1.21-1.1z"/><path fill="#47646d" d="M41.7 42l-5.37 11.7c-1 .07-1.95.11-2.92.14L37 36.81l.88-4.15L40.25 35h0l1.26 5.13-1.88.84zM30 51.77L26.63 35.83l-.41-2-.14-.68L26 32.67h0L23.59 35h0l-1.25 5.07 1.88.84L22.15 42l5.38 11.72.39 0 .48 0 1 0 .48 0h.61z"/><path fill="#5dafd8" d="M37.72,21.38A5.73,5.73,0,1,1,32,15.65,5.73,5.73,0,0,1,37.72,21.38Z"/><path fill="#5db3ce" d="M43.27,23.21V19.56L40,18.69a11,11,0,0,0-.43-1l1.74-3L38.67,12.1l-2.95,1.75a6.85,6.85,0,0,0-1-.43l-.85-3.33H30.16l-.85,3.33a6.85,6.85,0,0,0-1,.43L25.31,12.1,22.72,14.7l1.74,3a11,11,0,0,0-.43,1l-3.32.86v3.65l3.32.86a11,11,0,0,0,.43,1l-1.74,3,2.59,2.59,2.95-1.75a6.85,6.85,0,0,0,1,.43l.85,3.33h3.66l.85-3.33a6.85,6.85,0,0,0,1-.43l2.95,1.75,2.59-2.59-1.74-3a11,11,0,0,0,.43-1ZM32,29a7.59,7.59,0,1,1,7.58-7.59A7.6,7.6,0,0,1,32,29Z"/><path fill="#fff" d="M37.72,21.38A5.73,5.73,0,1,1,32,15.65,5.73,5.73,0,0,1,37.72,21.38Z"/><path fill="#6dc5e8" d="M32,13.79a7.59,7.59,0,1,0,7.58,7.59A7.6,7.6,0,0,0,32,13.79Zm-5.73,7.59A5.73,5.73,0,1,1,32,27.11,5.73,5.73,0,0,1,26.26,21.38Z"/></svg>