<svg xmlns="http://www.w3.org/2000/svg" id="Layer_1" enable-background="new 0 0 64 64" viewBox="0 0 64 64"><path fill="#4e5292" d="M35.33,16.49c-1.83-1.83-4.82-1.83-6.65,0c-0.88,0.88-1.38,2.07-1.38,3.32c0,1.26,0.49,2.43,1.38,3.33
		c0.92,0.91,2.12,1.38,3.33,1.38s2.4-0.47,3.33-1.38C37.15,21.3,37.15,18.32,35.33,16.49z M33.95,21.77c-1.08,1.07-2.82,1.07-3.9,0
		c-0.52-0.52-0.81-1.22-0.81-1.96c0-0.74,0.29-1.43,0.81-1.95c0.53-0.53,1.24-0.8,1.95-0.8s1.42,0.27,1.95,0.8
		C35.03,18.93,35.03,20.69,33.95,21.77z"/><path fill="#4e5292" d="M42.34 17.4c-.17-.17-.43-.28-.68-.28h-1.16c-.16-.48-.35-.96-.59-1.41l.82-.82c.18-.18.28-.43.28-.69 0-.25-.1-.5-.28-.68l-2.43-2.44c-.18-.17-.44-.28-.69-.28-.26 0-.5.11-.69.29L36.1 11.9c-.46-.23-.93-.43-1.42-.58v-1.16c0-.53-.44-.97-.97-.97h-3.44c-.26 0-.5.11-.69.29C29.4 9.66 29.3 9.9 29.3 10.15v1.17c-.48.16-.96.35-1.42.58l-.81-.82c-.39-.38-1-.38-1.38 0l-2.43 2.43c-.18.18-.29.44-.29.69 0 .26.11.5.29.69l.82.82c-.23.45-.43.92-.58 1.41h-1.16c-.53 0-.97.44-.97.97v3.44c0 .26.1.5.28.69.18.18.43.28.69.28h1.16c.16.49.35.96.58 1.42l-.82.81c-.17.18-.28.44-.28.69 0 .26.11.5.28.69l2.44 2.43c.38.38.99.38 1.37 0l.82-.82c.46.23.92.44 1.41.58v1.16c0 .53.44.97.97.97h3.45c.53 0 .97-.44.97-.97v-1.16c.48-.16.96-.35 1.41-.58l.82.82c.38.38.99.38 1.37 0l2.44-2.44c.17-.18.28-.43.28-.68 0-.26-.11-.5-.28-.69l-.82-.82c.23-.46.43-.92.58-1.41h1.16c.53 0 .97-.44.97-.97v-3.45C42.63 17.83 42.52 17.58 42.34 17.4zM40.69 20.57h-.94c-.46 0-.84.31-.94.76-.17.8-.48 1.54-.92 2.23-.25.39-.19.88.13 1.2l.66.67-1.07 1.06-.66-.66c-.32-.32-.82-.37-1.2-.13-.69.44-1.44.75-2.23.92-.45.1-.76.49-.76.95v.93h-1.51v-.93c0-.46-.31-.85-.76-.95-.8-.17-1.54-.48-2.23-.92-.38-.24-.88-.18-1.2.14l-.67.66-1.07-1.07.67-.66c.32-.32.38-.82.13-1.21-.43-.68-.74-1.43-.92-2.22-.1-.45-.48-.77-.94-.77h-.94v-1.5h.94c.45 0 .84-.32.94-.76.17-.8.48-1.55.92-2.23.24-.39.19-.88-.14-1.21l-.66-.66 1.07-1.07.66.66c.33.33.82.38 1.21.14.68-.44 1.43-.75 2.22-.92.45-.1.77-.49.77-.95v-.94h1.5v.94c0 .46.32.85.77.95.8.17 1.54.48 2.22.92.39.24.89.18 1.21-.14l.66-.66 1.07 1.07-.66.66c-.32.32-.38.82-.14 1.2.44.68.75 1.44.92 2.23.11.45.49.76.95.76h.94V20.57zM32 39.73c-2.95 0-5.35 2.4-5.35 5.34 0 2.95 2.4 5.34 5.35 5.34s5.34-2.4 5.34-5.34C37.35 42.13 34.95 39.73 32 39.73zM32 41.67c1.31 0 2.43.75 3.01 1.84-.49-.06-.84-.21-1.4-.69-.38-.32-.95-.29-1.32.05-.05.05-1.12 1.05-3.17.4C29.72 42.31 30.79 41.67 32 41.67zM32 48.48c-1.86 0-3.37-1.49-3.4-3.35 2.07.64 3.56.12 4.36-.36.88.58 1.61.68 2.4.69C35.17 47.16 33.75 48.48 32 48.48z"/><path fill="#4e5292" d="M63.03,13.06H50.31V6.49c0-0.53-0.43-0.97-0.97-0.97h-2.23V1.61c0-0.53-0.44-0.97-0.97-0.97H17.85
		c-0.53,0-0.97,0.44-0.97,0.97v3.91h-2.23c-0.53,0-0.97,0.44-0.97,0.97v6.57H0.97C0.43,13.06,0,13.5,0,14.03V59.3
		c0,0.54,0.43,0.97,0.97,0.97h13.66c0.01,0,0.01,0.01,0.02,0.01s0.01-0.01,0.02-0.01h7.03c0.01,0,0.01,0.01,0.02,0.01
		s0.01-0.01,0.02-0.01h2.97v2.12c0,0.53,0.44,0.97,0.97,0.97h12.64c0.54,0,0.97-0.44,0.97-0.97v-2.12h2.98c0,0,0.01,0.01,0.02,0.01
		l0.01-0.01h7.04l0.01,0.01c0.01,0,0.02-0.01,0.02-0.01h13.67c0.53,0,0.97-0.43,0.97-0.97V14.03C64,13.5,63.56,13.06,63.03,13.06z
		 M13.68,52.25H6.88v-2.63h6.81V52.25z M13.68,42.63H6.88v-2.64h6.81V42.63z M13.68,33H6.88v-2.64h6.81V33z M13.68,23.37H6.88v-2.63
		h6.81V23.37z M13.68,18.8H5.91c-0.53,0-0.97,0.44-0.97,0.97v4.57c0,0.53,0.44,0.97,0.97,0.97h7.78v3.11H5.91
		c-0.53,0-0.97,0.44-0.97,0.97v4.58c0,0.53,0.44,0.97,0.97,0.97h7.78v3.11H5.91c-0.53,0-0.97,0.44-0.97,0.97v4.58
		c0,0.53,0.44,0.97,0.97,0.97h7.78v3.11H5.91c-0.53,0-0.97,0.44-0.97,0.97v4.57c0,0.53,0.44,0.97,0.97,0.97h7.78v4.14H1.94V15h11.74
		V18.8z M18.82,2.58h26.35v2.94H18.82V2.58z M37.34,61.42h-10.7v-2.11c0,0,0,0,0-0.01c0,0,0,0,0-0.01v-2.83
		c0-1.97,1.6-3.57,3.57-3.57h3.57c1.96,0,3.56,1.6,3.56,3.57V61.42z M41.31,58.33h-2.03v-1.87c0-3.04-2.46-5.51-5.5-5.51h-3.57
		c-3.04,0-5.51,2.47-5.51,5.51v1.87h-2.02V43.57c0-5.13,4.18-9.31,9.31-9.31c5.13,0,9.31,4.18,9.31,9.31V58.33z M48.37,58.33h-5.12
		V43.57c0-6.2-5.05-11.25-11.25-11.25c-6.21,0-11.25,5.05-11.25,11.25v14.76h-5.13V7.46h32.75V58.33z M50.31,20.74h6.83v2.63h-6.83
		V20.74z M50.31,30.36h6.83V33h-6.83V30.36z M50.31,39.99h6.83v2.64h-6.83V39.99z M50.31,49.62h6.83v2.63h-6.83V49.62z M62.06,58.33
		H50.31v-4.14h7.8c0.53,0,0.97-0.44,0.97-0.97v-4.57c0-0.53-0.44-0.97-0.97-0.97h-7.8v-3.11h7.8c0.53,0,0.97-0.44,0.97-0.97v-4.58
		c0-0.53-0.44-0.97-0.97-0.97h-7.8v-3.11h7.8c0.53,0,0.97-0.44,0.97-0.97v-4.58c0-0.53-0.44-0.97-0.97-0.97h-7.8v-3.11h7.8
		c0.53,0,0.97-0.44,0.97-0.97v-4.57c0-0.53-0.44-0.97-0.97-0.97h-7.8V15h11.75V58.33z"/><path fill="#bec5da" d="M15.62,7.46v50.87h5.13V43.57c0-6.2,5.04-11.25,11.25-11.25c6.2,0,11.25,5.05,11.25,11.25v14.76h5.12V7.46
		H15.62z M42.63,21.54c0,0.53-0.44,0.97-0.97,0.97h-1.16c-0.16,0.48-0.35,0.95-0.58,1.41l0.82,0.82c0.17,0.18,0.28,0.43,0.28,0.69
		c0,0.25-0.11,0.49-0.28,0.68l-2.44,2.44c-0.38,0.38-0.99,0.38-1.37,0l-0.82-0.82c-0.45,0.23-0.92,0.43-1.41,0.58v1.16
		c0,0.53-0.44,0.97-0.97,0.97h-3.45c-0.53,0-0.97-0.44-0.97-0.97v-1.16c-0.48-0.15-0.95-0.35-1.41-0.58l-0.82,0.82
		c-0.38,0.38-0.99,0.38-1.37,0l-2.44-2.43c-0.17-0.18-0.28-0.43-0.28-0.69c0-0.25,0.11-0.5,0.28-0.69l0.82-0.81
		c-0.23-0.46-0.43-0.92-0.58-1.42h-1.16c-0.26,0-0.5-0.1-0.69-0.28c-0.18-0.18-0.28-0.43-0.28-0.69v-3.44
		c0-0.53,0.44-0.97,0.97-0.97h1.16c0.16-0.48,0.35-0.96,0.58-1.41l-0.82-0.82c-0.18-0.18-0.29-0.43-0.29-0.69
		c0-0.25,0.11-0.5,0.29-0.69l2.43-2.43c0.38-0.38,0.99-0.38,1.38,0l0.81,0.82c0.46-0.23,0.93-0.43,1.42-0.58v-1.17
		c0-0.25,0.1-0.49,0.28-0.68c0.18-0.18,0.43-0.29,0.69-0.29h3.44c0.53,0,0.97,0.44,0.97,0.97v1.16c0.48,0.16,0.96,0.35,1.42,0.58
		l0.81-0.81c0.18-0.18,0.43-0.29,0.69-0.29c0.25,0,0.5,0.11,0.69,0.28l2.43,2.44c0.18,0.17,0.28,0.43,0.28,0.68
		c0,0.26-0.1,0.5-0.28,0.69l-0.82,0.82c0.24,0.45,0.44,0.92,0.59,1.41h1.16c0.25,0,0.5,0.11,0.68,0.28
		c0.18,0.18,0.29,0.44,0.29,0.69V21.54z"/><rect width="3.2" height="50.87" x="15.62" y="7.46" fill="#acb3c6"/><rect width="3.2" height="50.87" x="45.17" y="7.46" fill="#d3d7e4"/><path fill="#ccd5dd" d="M4.94,19.77v4.57c0,0.53,0.44,0.97,0.97,0.97h7.78v3.11H5.91c-0.53,0-0.97,0.44-0.97,0.97v4.58
		c0,0.53,0.44,0.97,0.97,0.97h7.78v3.11H5.91c-0.53,0-0.97,0.44-0.97,0.97v4.58c0,0.53,0.44,0.97,0.97,0.97h7.78v3.11H5.91
		c-0.53,0-0.97,0.44-0.97,0.97v4.57c0,0.53,0.44,0.97,0.97,0.97h7.78v4.14H1.94V15h11.74v3.8H5.91C5.38,18.8,4.94,19.24,4.94,19.77z
		"/><path fill="#bbe0f6" d="M37.35,56.45v4.96h-10.7V59.3c0,0,0,0,0-0.01c0,0,0,0,0-0.01v-2.83c0-1.97,1.6-3.57,3.57-3.57h3.57
		C35.75,52.88,37.35,54.48,37.35,56.45z"/><path fill="#cae5f7" d="M37.34,56.46v4.96h-1.67v-4.96c0-1.97-1.1-3.57-2.44-3.57h0.55C35.74,52.89,37.34,54.49,37.34,56.46z"/><path fill="#a7d6e7" d="M30.78,52.89c-1.36,0-2.46,1.6-2.46,3.57v2.83c0,0.01,0,0.01,0,0.01c0,0.01,0,0.01,0,0.01v2.11h-1.67v-2.11
		c0,0,0,0,0-0.01c0,0,0,0,0-0.01v-2.83c0-1.97,1.6-3.57,3.57-3.57H30.78z"/><rect width="26.35" height="2.94" x="18.83" y="2.58" fill="#ccd5dd"/><rect width="3.01" height="2.94" x="42.16" y="2.58" fill="#d8dfe6"/><rect width="3.02" height="2.94" x="18.82" y="2.58" fill="#b5c3cc"/><path fill="#ccd5dd" d="M32,34.26c-5.13,0-9.31,4.18-9.31,9.31v14.76h2.02v-1.87c0-3.04,2.47-5.51,5.51-5.51h3.57
		c3.04,0,5.5,2.47,5.5,5.51v1.87h2.03V43.56C41.31,38.44,37.13,34.26,32,34.26z M32,50.42c-2.95,0-5.35-2.4-5.35-5.34
		c0-2.95,2.4-5.34,5.35-5.34s5.34,2.4,5.34,5.34C37.35,48.03,34.95,50.42,32,50.42z"/><path fill="#b5c3cc" d="M31.65,34.27c-3.64,0.25-6.54,4.33-6.54,9.3v10.82c-0.26,0.64-0.41,1.34-0.41,2.07v1.87h-2.02V43.57
		C22.69,38.56,26.68,34.45,31.65,34.27z"/><path fill="#d8dfe6" d="M41.31,43.57v14.76h-2.03v-1.87c0-0.71-0.14-1.39-0.39-2.01V43.57c0-4.96-2.9-9.05-6.54-9.3
		C37.32,34.45,41.31,38.56,41.31,43.57z"/><path fill="#98d3ba" d="M35.01,43.52c-0.49-0.06-0.84-0.21-1.4-0.69c-0.38-0.32-0.95-0.29-1.32,0.05c-0.05,0.05-1.12,1.05-3.17,0.4
		c0.6-0.96,1.67-1.6,2.88-1.6C33.31,41.67,34.44,42.42,35.01,43.52z"/><path fill="#f0d299" d="M35.37,45.47c-0.19,1.7-1.62,3.02-3.36,3.02c-1.86,0-3.37-1.49-3.4-3.35c2.07,0.64,3.56,0.12,4.36-0.36
		C33.85,45.36,34.57,45.46,35.37,45.47z"/><path fill="#b9e0ce" d="M35.01,43.52c-0.48-0.06-0.81-0.2-1.33-0.63c-0.25-0.52-0.59-0.91-0.99-1.13
		C33.7,41.96,34.54,42.62,35.01,43.52z"/><path fill="#89c3a8" d="M31.33,41.76c-0.54,0.28-0.99,0.91-1.24,1.73c-0.29-0.03-0.61-0.1-0.97-0.2C29.6,42.5,30.4,41.93,31.33,41.76z
		"/><path fill="#ffe4aa" d="M35.36,45.47c-0.17,1.48-1.28,2.68-2.72,2.96c0.82-0.43,1.44-1.64,1.5-3.09
		C34.55,45.44,34.95,45.46,35.36,45.47z"/><path fill="#dfc189" d="M31.35,48.42c-1.55-0.29-2.72-1.65-2.75-3.28c0.45,0.14,0.86,0.22,1.26,0.26
		C29.93,46.82,30.54,48,31.35,48.42z"/><path fill="#ffdb7c" d="M39.75,19.05c-0.46,0-0.84-0.31-0.95-0.76c-0.17-0.8-0.48-1.55-0.92-2.23c-0.24-0.38-0.18-0.88,0.14-1.2
		l0.66-0.66l-1.07-1.07l-0.66,0.66c-0.32,0.32-0.82,0.38-1.21,0.14c-0.68-0.44-1.43-0.75-2.22-0.92c-0.45-0.1-0.77-0.49-0.77-0.95
		v-0.94h-1.5v0.94c0,0.46-0.32,0.85-0.77,0.95c-0.8,0.17-1.54,0.48-2.22,0.92c-0.39,0.24-0.88,0.19-1.21-0.14l-0.66-0.66l-1.07,1.07
		l0.66,0.66c0.33,0.33,0.38,0.82,0.14,1.21c-0.44,0.68-0.75,1.43-0.92,2.23c-0.1,0.44-0.49,0.76-0.94,0.76h-0.94v1.5h0.94
		c0.46,0,0.84,0.32,0.94,0.77c0.18,0.8,0.49,1.54,0.92,2.22c0.25,0.39,0.19,0.89-0.13,1.21l-0.67,0.66l1.07,1.07l0.67-0.66
		c0.32-0.32,0.82-0.38,1.2-0.14c0.69,0.44,1.44,0.75,2.23,0.92c0.45,0.1,0.76,0.49,0.76,0.95v0.93h1.51v-0.93
		c0-0.46,0.31-0.85,0.76-0.95c0.8-0.17,1.54-0.48,2.23-0.92c0.38-0.24,0.88-0.19,1.2,0.13l0.66,0.66l1.07-1.06l-0.66-0.67
		c-0.32-0.32-0.38-0.81-0.13-1.2c0.44-0.69,0.75-1.44,0.92-2.23c0.1-0.45,0.48-0.76,0.94-0.76h0.94v-1.51H39.75z M28.67,23.14
		c-0.88-0.89-1.38-2.07-1.38-3.33c0-1.25,0.49-2.43,1.38-3.32c1.83-1.83,4.82-1.83,6.65,0c1.82,1.83,1.82,4.81,0,6.64
		c-0.92,0.91-2.12,1.38-3.33,1.38S29.6,24.05,28.67,23.14z"/><path fill="#bec5da" d="M33.95,21.77c-1.08,1.07-2.82,1.07-3.9,0c-0.52-0.52-0.81-1.22-0.81-1.96c0-0.74,0.29-1.43,0.81-1.95
		c0.53-0.53,1.24-0.8,1.95-0.8s1.42,0.27,1.95,0.8C35.03,18.93,35.03,20.69,33.95,21.77z"/><path fill="#f0ca6c" d="M36.17,15.64c-1.14-1.13-2.65-1.72-4.16-1.72c-1.51,0-3.03,0.58-4.16,1.72c-1.12,1.12-1.74,2.59-1.74,4.16
		c0,1.58,0.62,3.06,1.74,4.18c2.3,2.28,6.02,2.28,8.32,0C38.47,21.69,38.47,17.94,36.17,15.64z M35.33,23.14
		c-0.92,0.91-2.12,1.38-3.33,1.38s-2.4-0.47-3.33-1.38c-0.88-0.89-1.38-2.07-1.38-3.33c0-1.25,0.49-2.43,1.38-3.32
		c1.83-1.83,4.82-1.83,6.65,0C37.15,18.33,37.15,21.3,35.33,23.14z"/><path fill="#ccd5dd" d="M62.06,15v43.33H50.31v-4.14h7.8c0.53,0,0.97-0.44,0.97-0.97v-4.57c0-0.53-0.44-0.97-0.97-0.97h-7.8v-3.11
		h7.8c0.53,0,0.97-0.44,0.97-0.97v-4.58c0-0.53-0.44-0.97-0.97-0.97h-7.8v-3.11h7.8c0.53,0,0.97-0.44,0.97-0.97v-4.58
		c0-0.53-0.44-0.97-0.97-0.97h-7.8v-3.11h7.8c0.53,0,0.97-0.44,0.97-0.97v-4.57c0-0.53-0.44-0.97-0.97-0.97h-7.8V15H62.06z"/><path fill="#b5c3cc" d="M4.94,19.77v4.57c0,0.38,0.22,0.71,0.54,0.86v3.33c-0.32,0.16-0.54,0.48-0.54,0.86v4.58
		c0,0.38,0.22,0.71,0.54,0.86v3.33c-0.32,0.16-0.54,0.48-0.54,0.86v4.58c0,0.38,0.22,0.71,0.54,0.86v3.33
		c-0.32,0.16-0.54,0.48-0.54,0.86v4.57c0,0.38,0.22,0.71,0.54,0.86v4.25H1.94V15h3.54v3.91C5.16,19.06,4.94,19.39,4.94,19.77z"/><path fill="#d8dfe6" d="M59.07,19.77v4.57c0,0.38-0.22,0.71-0.54,0.86v3.33c0.32,0.16,0.54,0.48,0.54,0.86v4.58
		c0,0.38-0.22,0.71-0.54,0.86v3.33c0.32,0.16,0.54,0.48,0.54,0.86v4.58c0,0.38-0.22,0.71-0.54,0.86v3.33
		c0.32,0.16,0.54,0.48,0.54,0.86v4.57c0,0.38-0.22,0.71-0.54,0.86v4.25h3.54V15h-3.54v3.91C58.84,19.06,59.07,19.39,59.07,19.77z"/><rect width="6.83" height="2.64" x="50.31" y="39.99" fill="#bbe0f6"/><rect width="6.83" height="2.63" x="50.31" y="49.62" fill="#bbe0f6"/><rect width="6.81" height="2.63" x="6.88" y="49.62" fill="#bbe0f6"/><rect width="6.81" height="2.64" x="6.88" y="39.99" fill="#bbe0f6"/><rect width="6.81" height="2.64" x="6.88" y="30.36" fill="#bbe0f6"/><rect width="6.81" height="2.63" x="6.88" y="20.74" fill="#bbe0f6"/><rect width="6.83" height="2.64" x="50.31" y="30.36" fill="#bbe0f6"/><rect width="6.83" height="2.63" x="50.31" y="20.74" fill="#bbe0f6"/></svg>