<svg xmlns="http://www.w3.org/2000/svg" id="Layer_1" enable-background="new 0 0 500 500" viewBox="0 0 500 500"><polygon fill="#fd9d4c" points="55.6 131.2 267 208.8 277.6 208.8 277.6 174.8 55.6 122.8"/><path fill="#222f3d" d="M346.7,333.3c-3,0-5.5,2.4-5.5,5.5c0,3,2.4,5.5,5.5,5.5c3,0,5.5-2.4,5.5-5.5
		C352.2,335.7,349.7,333.3,346.7,333.3z"/><polygon fill="#22bee1" points="379.8 174 348.3 173.8 347.5 230.5 406.7 230.5 406.6 223.9"/><path fill="#8495a6" d="M346.7,299.4c-21.7,0-39.4,17.7-39.4,39.4c0,21.7,17.7,39.4,39.4,39.4s39.4-17.7,39.4-39.4
		C386.1,317,368.4,299.4,346.7,299.4z M346.7,360.9c-12.2,0-22.2-10-22.2-22.2c0-12.2,10-22.2,22.2-22.2c12.3,0,22.2,10,22.2,22.2
		C368.9,351,359,360.9,346.7,360.9z"/><path fill="#222f3d" d="M138.4,334.1c-2.6,0-4.6,2.1-4.6,4.6c0,2.6,2.1,4.6,4.6,4.6c2.6,0,4.6-2.1,4.6-4.6
		C143,336.2,141,334.1,138.4,334.1z"/><path fill="#8495a6" d="M138.4,299.4c-21.7,0-39.4,17.7-39.4,39.4c0,21.7,17.7,39.4,39.4,39.4s39.4-17.7,39.4-39.4
		C177.8,317,160.1,299.4,138.4,299.4z M138.4,360.1c-11.8,0-21.4-9.6-21.4-21.4c0-11.8,9.6-21.4,21.4-21.4
		c11.8,0,21.4,9.6,21.4,21.4C159.8,350.5,150.2,360.1,138.4,360.1z"/><path fill="#2ed1a2" d="M401.8,153.3c-1.7-2.9-4.9-4.8-8.3-4.8h-67.2c-5.3,0-9.6,4.3-9.6,9.6v63.8c0,15.8-12.8,28.6-28.6,28.6h-137
		c-3.9,0-7.6,1.1-10.9,3.2l-0.5,0.3l-84.1,45.2c-0.6,0.5-0.9,1.2-0.9,1.9l0.3,25.2c0,1.3,1.1,2.4,2.4,2.4h25.9
		c4.7-26.2,27.7-46.1,55.2-46.1c28.1,0,51.4,20.8,55.5,47.7h97.3c4.1-27,27.4-47.7,55.5-47.7c26.4,0,48.7,18.4,54.6,43h40.6
		c6.4,0,11.5-5.2,11.5-11.5v-68.8c0-2-0.5-4-1.6-5.8L401.8,153.3z M423.5,231.6c0,8.7-6.7,15.7-14.9,15.7h-62.8c-8.2,0-15-7-15-15.7
		l0.8-58.9c0-8.6,6.7-15.6,14.9-15.6l33.7,0.2c0,0,0.1,0,0.1,0c5.4,0,10.6,2.8,13.7,7.6l0.4,0.6l26.8,49.9c1.6,2.5,2.4,5.5,2.4,8.6
		V231.6z"/><path fill="#332195" d="M138.4 317.3c-11.8 0-21.4 9.6-21.4 21.4 0 11.8 9.6 21.4 21.4 21.4 11.8 0 21.4-9.6 21.4-21.4C159.8 326.9 150.2 317.3 138.4 317.3zM138.4 343.4c-2.6 0-4.6-2.1-4.6-4.6 0-2.6 2.1-4.6 4.6-4.6 2.6 0 4.6 2.1 4.6 4.6C143 341.3 141 343.4 138.4 343.4zM346.7 316.5c-12.2 0-22.2 10-22.2 22.2 0 12.3 10 22.2 22.2 22.2 12.3 0 22.2-10 22.2-22.2C368.9 326.5 359 316.5 346.7 316.5zM346.7 344.2c-3 0-5.5-2.4-5.5-5.5 0-3 2.4-5.5 5.5-5.5 3 0 5.5 2.4 5.5 5.5C352.2 341.7 349.7 344.2 346.7 344.2z"/><path fill="#332195" d="M416.3,144.9c-4.7-8.1-13.4-13.1-22.8-13.1h-67.2c-14.5,0-26.3,11.8-26.3,26.3v63.8c0,6.5-5.3,11.9-11.9,11.9
		h-137c-7,0-13.7,2-19.6,5.6l-84.2,45.3l-0.6,0.3c-5.6,3.6-8.9,9.7-8.8,16.4l0.3,25.2c0.1,10.4,8.7,18.9,19.1,18.9h25.4
		c3.3,27.8,27,49.4,55.7,49.4c28.1,0,51.4-20.8,55.5-47.7h97.3c4.1,27,27.4,47.7,55.5,47.7c29.7,0,54.1-23.2,56-52.4h39.1
		c15.6,0,28.3-12.7,28.3-28.3v-68.8c0-5-1.3-9.9-3.8-14.2L416.3,144.9z M138.4,378.1c-21.7,0-39.4-17.7-39.4-39.4
		c0-21.7,17.7-39.4,39.4-39.4s39.4,17.7,39.4,39.4C177.8,360.4,160.1,378.1,138.4,378.1z M346.7,378.1c-21.7,0-39.4-17.7-39.4-39.4
		c0-21.7,17.7-39.4,39.4-39.4s39.4,17.7,39.4,39.4C386.1,360.4,368.4,378.1,346.7,378.1z M453.4,314.1c0,6.4-5.2,11.5-11.5,11.5
		h-40.6c-5.9-24.7-28.1-43-54.6-43c-28.1,0-51.4,20.8-55.5,47.7h-97.3c-4.1-27-27.4-47.7-55.5-47.7c-27.5,0-50.5,19.9-55.2,46.1
		H57.3c-1.3,0-2.4-1.1-2.4-2.4l-0.3-25.2c0-0.8,0.3-1.5,0.9-1.9l84.1-45.2l0.5-0.3c3.3-2.1,7-3.2,10.9-3.2h137
		c15.8,0,28.6-12.8,28.6-28.6v-63.8c0-5.3,4.3-9.6,9.6-9.6h67.2c3.4,0,6.6,1.8,8.3,4.8l50,86.2c1,1.8,1.6,3.8,1.6,5.8V314.1z"/><path fill="#332195" d="M394.2 165.5l-.4-.6c-3.1-4.8-8.3-7.6-13.7-7.6 0 0-.1 0-.1 0l-33.7-.2c-8.2.1-14.8 7.1-14.9 15.6l-.8 58.9c0 8.7 6.7 15.7 15 15.7h62.8c8.2 0 14.9-7 14.9-15.7v-7.6c0-3.1-.8-6-2.4-8.6L394.2 165.5zM347.5 230.5l.7-56.8 31.5.2 26.8 49.9.1 6.6H347.5zM55.8 105.6c-4-1.1-8.2-.2-11.6 2.3-3.4 2.6-5.3 6.5-5.3 10.7v14.9c0 5.4 3.2 10.3 8.2 12.4l214.3 78.7c1.6.7 3.3 1 5.1 1h14.4c7.4 0 13.5-6.1 13.5-13.5v-39.8c0-6.1-4.1-11.4-9.9-13L55.8 105.6zM277.6 208.8H267L55.6 131.2v-8.5l222 52.1V208.8zM65.4 255.3c4.1-.8 6.5-3.2 5.8-9.5-.7-6.2-7-5.7-7-5.7-2.9.2-11.9 1.5-16.4-2.7-1.2-1.2-2.9-3.3-2.8-7.9.3-13.2 10.2-14.3 13.3-14.3 0 0 0 0 .1 0l3.6.1c2.3.1 4.2-1.8 4.2-4V165c0-2.2-1.8-4-4-4h-7.1c-2.2 0-4 1.8-4 4v32.9c0 1.7-1 3.3-2.7 3.9-3.2 1.1-6.8 3-9.9 6-5.5 5.2-8.4 12.4-8.6 21.3-.2 7.8 2.4 14.5 7.5 19.3 8.1 7.6 19.8 6.9 25.3 6.9C64.1 255.4 65 255.3 65.4 255.3z"/></svg>